<?xml version="1.0" encoding="UTF-8" standalone="no"?>
<!DOCTYPE svg PUBLIC "-//W3C//DTD SVG 1.1//EN"
 "http://www.w3.org/Graphics/SVG/1.1/DTD/svg11.dtd">
<!-- Generated by graphviz version 2.47.3 (20210619.1520)
 -->
<!-- Title: dependencies Pages: 1 -->
<svg width="468pt" height="247pt"
 viewBox="0.00 0.00 468.00 246.80" xmlns="http://www.w3.org/2000/svg" xmlns:xlink="http://www.w3.org/1999/xlink">
<g id="graph0" class="graph" transform="scale(1 1) rotate(0) translate(4 242.8)">
<title>dependencies</title>
<polygon fill="white" stroke="transparent" points="-4,4 -4,-242.8 464,-242.8 464,4 -4,4"/>
<text text-anchor="middle" x="230" y="-8.2" font-family="sans-serif" font-size="14.00">dependencies</text>
<g id="clust1" class="cluster">
<title>cluster_SharedModule</title>
<polygon fill="none" stroke="black" stroke-dasharray="1,5" points="8,-32.8 8,-230.8 452,-230.8 452,-32.8 8,-32.8"/>
</g>
<g id="clust5" class="cluster">
<title>cluster_SharedModule_imports</title>
<polygon fill="none" stroke="black" points="300,-40.8 300,-92.8 444,-92.8 444,-40.8 300,-40.8"/>
</g>
<g id="clust6" class="cluster">
<title>cluster_SharedModule_exports</title>
<polygon fill="none" stroke="black" points="85,-170.8 85,-222.8 369,-222.8 369,-170.8 85,-170.8"/>
</g>
<g id="clust2" class="cluster">
<title>cluster_SharedModule_declarations</title>
<polygon fill="none" stroke="black" points="16,-40.8 16,-92.8 292,-92.8 292,-40.8 16,-40.8"/>
</g>
<!-- FooterComponent -->
<g id="node1" class="node">
<title>FooterComponent</title>
<polygon fill="#ffffb3" stroke="black" points="283.88,-84.8 166.12,-84.8 166.12,-48.8 283.88,-48.8 283.88,-84.8"/>
<text text-anchor="middle" x="225" y="-62.6" font-family="Times,serif" font-size="14.00">FooterComponent</text>
</g>
<!-- SharedModule -->
<g id="node3" class="node">
<title>SharedModule</title>
<polygon fill="#8dd3c7" stroke="black" points="274.42,-149.8 271.42,-153.8 250.42,-153.8 247.42,-149.8 175.58,-149.8 175.58,-113.8 274.42,-113.8 274.42,-149.8"/>
<text text-anchor="middle" x="225" y="-127.6" font-family="Times,serif" font-size="14.00">SharedModule</text>
</g>
<!-- FooterComponent&#45;&gt;SharedModule -->
<g id="edge1" class="edge">
<title>FooterComponent&#45;&gt;SharedModule</title>
<path fill="none" stroke="black" d="M225,-84.91C225,-84.91 225,-103.79 225,-103.79"/>
<polygon fill="black" stroke="black" points="221.5,-103.79 225,-113.79 228.5,-103.79 221.5,-103.79"/>
</g>
<!-- NavBarComponent -->
<g id="node2" class="node">
<title>NavBarComponent</title>
<polygon fill="#ffffb3" stroke="black" points="148.37,-84.8 23.63,-84.8 23.63,-48.8 148.37,-48.8 148.37,-84.8"/>
<text text-anchor="middle" x="86" y="-62.6" font-family="Times,serif" font-size="14.00">NavBarComponent</text>
</g>
<!-- NavBarComponent&#45;&gt;SharedModule -->
<g id="edge2" class="edge">
<title>NavBarComponent&#45;&gt;SharedModule</title>
<path fill="none" stroke="black" d="M120.62,-84.91C120.62,-104.14 120.62,-131.8 120.62,-131.8 120.62,-131.8 165.56,-131.8 165.56,-131.8"/>
<polygon fill="black" stroke="black" points="165.56,-135.3 175.56,-131.8 165.56,-128.3 165.56,-135.3"/>
</g>
<!-- FooterComponent  -->
<g id="node5" class="node">
<title>FooterComponent </title>
<polygon fill="#fb8072" stroke="black" points="360.88,-214.8 239.12,-214.8 239.12,-178.8 360.88,-178.8 360.88,-214.8"/>
<text text-anchor="middle" x="300" y="-192.6" font-family="Times,serif" font-size="14.00">FooterComponent </text>
</g>
<!-- SharedModule&#45;&gt;FooterComponent  -->
<g id="edge4" class="edge">
<title>SharedModule&#45;&gt;FooterComponent </title>
<path fill="none" stroke="black" stroke-dasharray="5,2" d="M256.76,-149.91C256.76,-149.91 256.76,-168.79 256.76,-168.79"/>
<polygon fill="black" stroke="black" points="253.26,-168.79 256.76,-178.79 260.26,-168.79 253.26,-168.79"/>
</g>
<!-- NavBarComponent  -->
<g id="node6" class="node">
<title>NavBarComponent </title>
<polygon fill="#fb8072" stroke="black" points="221.37,-214.8 92.63,-214.8 92.63,-178.8 221.37,-178.8 221.37,-214.8"/>
<text text-anchor="middle" x="157" y="-192.6" font-family="Times,serif" font-size="14.00">NavBarComponent </text>
</g>
<!-- SharedModule&#45;&gt;NavBarComponent  -->
<g id="edge5" class="edge">
<title>SharedModule&#45;&gt;NavBarComponent </title>
<path fill="none" stroke="black" stroke-dasharray="5,2" d="M198.49,-149.91C198.49,-149.91 198.49,-168.79 198.49,-168.79"/>
<polygon fill="black" stroke="black" points="194.99,-168.79 198.49,-178.79 201.99,-168.79 194.99,-168.79"/>
</g>
<!-- AppRoutingModule -->
<g id="node4" class="node">
<title>AppRoutingModule</title>
<polygon fill="#8dd3c7" stroke="black" points="436.27,-84.8 433.27,-88.8 412.27,-88.8 409.27,-84.8 307.73,-84.8 307.73,-48.8 436.27,-48.8 436.27,-84.8"/>
<text text-anchor="middle" x="372" y="-62.6" font-family="Times,serif" font-size="14.00">AppRoutingModule</text>
</g>
<!-- AppRoutingModule&#45;&gt;SharedModule -->
<g id="edge3" class="edge">
<title>AppRoutingModule&#45;&gt;SharedModule</title>
<path fill="none" stroke="black" d="M334.15,-84.91C334.15,-104.14 334.15,-131.8 334.15,-131.8 334.15,-131.8 284.47,-131.8 284.47,-131.8"/>
<polygon fill="black" stroke="black" points="284.47,-128.3 274.47,-131.8 284.47,-135.3 284.47,-128.3"/>
</g>
</g>
</svg>
