<svg xmlns="http://www.w3.org/2000/svg" width="32" height="32" viewBox="0 0 48 48">
    <g fill="none" fill-rule="evenodd">
        <path d="M0 0h48v48H0z"/>
        <path stroke="#212121" stroke-linejoin="round" stroke-width="2.25" d="M35.885 13.76c1.39 1.487 2.154 3.515 2.113 5.616a8.597 8.597 0 0 1-.736 3.15C35.95 25.345 24 36.7 24 36.7S12.064 25.337 10.738 22.526a7.413 7.413 0 0 1-.737-3.15c-.034-2.1.731-4.124 2.12-5.608 1.39-1.485 3.283-2.303 5.248-2.266 4.512 0 6.63 4.724 6.63 4.724s2.11-4.724 6.632-4.724c1.966-.044 3.864.772 5.254 2.258z"/>
    </g>
</svg>
