<svg fill="#000000" xmlns="http://www.w3.org/2000/svg"  viewBox="0 0 50 50" width="18px" height="18px"><path d="M 6 4 L 6 8 L 2 8 L 2 43 L 3 43 C 15.613281 43 24.507813 46.875 24.59375 46.914063 L 25 47.09375 L 25.40625 46.914063 C 25.492188 46.875 34.386719 43 47 43 L 48 43 L 48 8 L 44 8 L 44 4 L 43 4 C 33.160156 4 25.640625 7.621094 25 7.9375 C 24.359375 7.621094 16.839844 4 7 4 Z M 8 6.089844 C 16.246094 6.324219 22.652344 9.046875 24 9.65625 L 24 40.503906 C 21.871094 39.585938 15.886719 37.300781 8 37.089844 Z M 42 6.089844 L 42 37.089844 C 34.113281 37.300781 28.128906 39.585938 26 40.503906 L 26 9.65625 C 27.347656 9.046875 33.753906 6.324219 42 6.089844 Z"/></svg>