<svg fill="#000000" xmlns="http://www.w3.org/2000/svg"  viewBox="0 0 48 48" width="18px" height="18px"><path d="M 36 5 C 34.13 5 32.371781 5.7287812 31.050781 7.0507812 L 8.9140625 29.185547 C 8.4960625 29.605547 8.1883906 30.128266 8.0253906 30.697266 L 5.0566406 41.087891 C 4.9076406 41.611891 5.0534531 42.175547 5.4394531 42.560547 C 5.7254531 42.845547 6.107 43 6.5 43 C 6.638 43 6.7761094 42.980406 6.9121094 42.941406 L 17.302734 39.974609 C 17.875734 39.810609 18.398453 39.500031 18.814453 39.082031 L 38.388672 19.509766 L 39.703125 20.826172 C 40.088317 21.210962 40.089214 21.789693 39.703125 22.175781 L 32.439453 29.439453 A 1.50015 1.50015 0 1 0 34.560547 31.560547 L 41.824219 24.296875 C 43.355731 22.765363 43.355828 20.236409 41.824219 18.705078 L 41.824219 18.703125 L 40.509766 17.388672 L 40.949219 16.949219 C 42.271219 15.628219 43 13.87 43 12 C 43 10.13 42.270219 8.3717812 40.949219 7.0507812 C 39.627219 5.7287813 37.87 5 36 5 z"/></svg>