<svg fill="#000000" xmlns="http://www.w3.org/2000/svg"  viewBox="0 0 512 512" width="26px" height="26px"><path d="M496.9,77.975a9.978,9.978,0,0,0-5.38-3.546c-.319-.083-.643-.15-.969-.2l-.015,0a9.974,9.974,0,0,0-4.3.268L20.42,198.905a10,10,0,0,0-1.276,18.887l140.712,58.813L184.6,429.491a10,10,0,0,0,16.849,5.565L283.441,355.2,392.81,429.334a10,10,0,0,0,15.268-5.681L498.631,86.8q.122-.436.2-.882a10.007,10.007,0,0,0-1.362-7.123C497.3,78.513,497.105,78.239,496.9,77.975Zm-78.1,35.231L168.119,258.383,53.931,210.656ZM179.811,274.725l218.767-126.7L222.169,298.371a9.993,9.993,0,0,0-3.134,4.914l-.009,0L197.1,381.5Zm34.335,120.049,20.39-72.724,32,21.693ZM392.409,404.9,245.138,305.074,470.987,112.6Z"/></svg>