<svg fill="#000000" xmlns="http://www.w3.org/2000/svg"  viewBox="0 0 50 50" width="27px" height="27px"><path d="M 4 3 A 1.0001 1.0001 0 0 0 3 4 L 3 14 A 1.0001 1.0001 0 0 0 4 15 L 14 15 A 1.0001 1.0001 0 0 0 15 14 L 15 4 A 1.0001 1.0001 0 0 0 14 3 L 4 3 z M 20 3 A 1.0001 1.0001 0 0 0 19 4 L 19 14 A 1.0001 1.0001 0 0 0 20 15 L 30 15 A 1.0001 1.0001 0 0 0 31 14 L 31 4 A 1.0001 1.0001 0 0 0 30 3 L 20 3 z M 36 3 A 1.0001 1.0001 0 0 0 35 4 L 35 14 A 1.0001 1.0001 0 0 0 36 15 L 46 15 A 1.0001 1.0001 0 0 0 47 14 L 47 4 A 1.0001 1.0001 0 0 0 46 3 L 36 3 z M 4 19 A 1.0001 1.0001 0 0 0 3 20 L 3 30 A 1.0001 1.0001 0 0 0 4 31 L 14 31 A 1.0001 1.0001 0 0 0 15 30 L 15 20 A 1.0001 1.0001 0 0 0 14 19 L 4 19 z M 20 19 A 1.0001 1.0001 0 0 0 19 20 L 19 30 A 1.0001 1.0001 0 0 0 20 31 L 30 31 A 1.0001 1.0001 0 0 0 31 30 L 31 20 A 1.0001 1.0001 0 0 0 30 19 L 20 19 z M 36 19 A 1.0001 1.0001 0 0 0 35 20 L 35 30 A 1.0001 1.0001 0 0 0 36 31 L 46 31 A 1.0001 1.0001 0 0 0 47 30 L 47 20 A 1.0001 1.0001 0 0 0 46 19 L 36 19 z M 4 35 A 1.0001 1.0001 0 0 0 3 36 L 3 46 A 1.0001 1.0001 0 0 0 4 47 L 14 47 A 1.0001 1.0001 0 0 0 15 46 L 15 36 A 1.0001 1.0001 0 0 0 14 35 L 4 35 z M 20 35 A 1.0001 1.0001 0 0 0 19 36 L 19 46 A 1.0001 1.0001 0 0 0 20 47 L 30 47 A 1.0001 1.0001 0 0 0 31 46 L 31 36 A 1.0001 1.0001 0 0 0 30 35 L 20 35 z M 36 35 A 1.0001 1.0001 0 0 0 35 36 L 35 46 A 1.0001 1.0001 0 0 0 36 47 L 46 47 A 1.0001 1.0001 0 0 0 47 46 L 47 36 A 1.0001 1.0001 0 0 0 46 35 L 36 35 z"/></svg>