<?xml version="1.0" encoding="UTF-8" standalone="no"?>
<!DOCTYPE svg PUBLIC "-//W3C//DTD SVG 1.1//EN"
 "http://www.w3.org/Graphics/SVG/1.1/DTD/svg11.dtd">
<!-- Generated by graphviz version 2.47.3 (20210619.1520)
 -->
<!-- Title: dependencies Pages: 1 -->
<svg width="831pt" height="174pt"
 viewBox="0.00 0.00 831.00 173.80" xmlns="http://www.w3.org/2000/svg" xmlns:xlink="http://www.w3.org/1999/xlink">
<g id="graph0" class="graph" transform="scale(1 1) rotate(0) translate(4 169.8)">
<title>dependencies</title>
<polygon fill="white" stroke="transparent" points="-4,4 -4,-169.8 827,-169.8 827,4 -4,4"/>
<text text-anchor="middle" x="411.5" y="-8.2" font-family="sans-serif" font-size="14.00">dependencies</text>
<g id="clust1" class="cluster">
<title>cluster_MoreModule</title>
<polygon fill="none" stroke="black" stroke-dasharray="1,5" points="8,-32.8 8,-157.8 815,-157.8 815,-32.8 8,-32.8"/>
</g>
<g id="clust2" class="cluster">
<title>cluster_MoreModule_declarations</title>
<polygon fill="none" stroke="black" points="174,-40.8 174,-92.8 807,-92.8 807,-40.8 174,-40.8"/>
</g>
<g id="clust7" class="cluster">
<title>cluster_MoreModule_imports</title>
<polygon fill="none" stroke="black" points="16,-40.8 16,-92.8 166,-92.8 166,-40.8 16,-40.8"/>
</g>
<!-- AboutUsComponent -->
<g id="node1" class="node">
<title>AboutUsComponent</title>
<polygon fill="#ffffb3" stroke="black" points="798.88,-84.8 667.12,-84.8 667.12,-48.8 798.88,-48.8 798.88,-84.8"/>
<text text-anchor="middle" x="733" y="-62.6" font-family="Times,serif" font-size="14.00">AboutUsComponent</text>
</g>
<!-- MoreModule -->
<g id="node5" class="node">
<title>MoreModule</title>
<polygon fill="#8dd3c7" stroke="black" points="496.87,-149.8 493.87,-153.8 472.87,-153.8 469.87,-149.8 407.13,-149.8 407.13,-113.8 496.87,-113.8 496.87,-149.8"/>
<text text-anchor="middle" x="452" y="-127.6" font-family="Times,serif" font-size="14.00">MoreModule</text>
</g>
<!-- AboutUsComponent&#45;&gt;MoreModule -->
<g id="edge1" class="edge">
<title>AboutUsComponent&#45;&gt;MoreModule</title>
<path fill="none" stroke="black" d="M733,-85.08C733,-106.12 733,-137.8 733,-137.8 733,-137.8 507.15,-137.8 507.15,-137.8"/>
<polygon fill="black" stroke="black" points="507.15,-134.3 497.15,-137.8 507.15,-141.3 507.15,-134.3"/>
</g>
<!-- ContactComponent -->
<g id="node2" class="node">
<title>ContactComponent</title>
<polygon fill="#ffffb3" stroke="black" points="649.38,-84.8 524.62,-84.8 524.62,-48.8 649.38,-48.8 649.38,-84.8"/>
<text text-anchor="middle" x="587" y="-62.6" font-family="Times,serif" font-size="14.00">ContactComponent</text>
</g>
<!-- ContactComponent&#45;&gt;MoreModule -->
<g id="edge2" class="edge">
<title>ContactComponent&#45;&gt;MoreModule</title>
<path fill="none" stroke="black" d="M587,-84.82C587,-102.17 587,-125.8 587,-125.8 587,-125.8 506.95,-125.8 506.95,-125.8"/>
<polygon fill="black" stroke="black" points="506.95,-122.3 496.95,-125.8 506.95,-129.3 506.95,-122.3"/>
</g>
<!-- FAQComponent -->
<g id="node3" class="node">
<title>FAQComponent</title>
<polygon fill="#ffffb3" stroke="black" points="506.83,-84.8 397.17,-84.8 397.17,-48.8 506.83,-48.8 506.83,-84.8"/>
<text text-anchor="middle" x="452" y="-62.6" font-family="Times,serif" font-size="14.00">FAQComponent</text>
</g>
<!-- FAQComponent&#45;&gt;MoreModule -->
<g id="edge3" class="edge">
<title>FAQComponent&#45;&gt;MoreModule</title>
<path fill="none" stroke="black" d="M452,-84.91C452,-84.91 452,-103.79 452,-103.79"/>
<polygon fill="black" stroke="black" points="448.5,-103.79 452,-113.79 455.5,-103.79 448.5,-103.79"/>
</g>
<!-- TermsAndConditionComponent -->
<g id="node4" class="node">
<title>TermsAndConditionComponent</title>
<polygon fill="#ffffb3" stroke="black" points="379.71,-84.8 182.29,-84.8 182.29,-48.8 379.71,-48.8 379.71,-84.8"/>
<text text-anchor="middle" x="281" y="-62.6" font-family="Times,serif" font-size="14.00">TermsAndConditionComponent</text>
</g>
<!-- TermsAndConditionComponent&#45;&gt;MoreModule -->
<g id="edge4" class="edge">
<title>TermsAndConditionComponent&#45;&gt;MoreModule</title>
<path fill="none" stroke="black" d="M281,-84.82C281,-102.17 281,-125.8 281,-125.8 281,-125.8 397.07,-125.8 397.07,-125.8"/>
<polygon fill="black" stroke="black" points="397.07,-129.3 407.07,-125.8 397.07,-122.3 397.07,-129.3"/>
</g>
<!-- MoreRoutingModule -->
<g id="node6" class="node">
<title>MoreRoutingModule</title>
<polygon fill="#8dd3c7" stroke="black" points="158.49,-84.8 155.49,-88.8 134.49,-88.8 131.49,-84.8 23.51,-84.8 23.51,-48.8 158.49,-48.8 158.49,-84.8"/>
<text text-anchor="middle" x="91" y="-62.6" font-family="Times,serif" font-size="14.00">MoreRoutingModule</text>
</g>
<!-- MoreRoutingModule&#45;&gt;MoreModule -->
<g id="edge5" class="edge">
<title>MoreRoutingModule&#45;&gt;MoreModule</title>
<path fill="none" stroke="black" d="M91,-85.08C91,-106.12 91,-137.8 91,-137.8 91,-137.8 397.01,-137.8 397.01,-137.8"/>
<polygon fill="black" stroke="black" points="397.01,-141.3 407.01,-137.8 397.01,-134.3 397.01,-141.3"/>
</g>
</g>
</svg>
