<svg fill="#000000" xmlns="http://www.w3.org/2000/svg"  viewBox="0 0 30 30" width="22px" height="22px"><path d="M 21.990234 4.9707031 A 1.0001 1.0001 0 0 0 21.769531 5 L 15.050781 5 L 14.951172 5 L 8.1523438 5 A 1.0001 1.0001 0 0 0 8.0019531 4.9863281 A 1.0001 1.0001 0 0 0 7.1503906 5.453125 L 1.3242188 12.251953 A 1.0001 1.0001 0 0 0 1.3828125 13.796875 L 14.269531 26.683594 A 1.0001 1.0001 0 0 0 14.279297 26.695312 L 14.292969 26.707031 A 1.0001 1.0001 0 0 0 14.447266 26.833984 A 1.0001 1.0001 0 0 0 14.455078 26.837891 A 1.0001 1.0001 0 0 0 14.529297 26.882812 A 1.0001 1.0001 0 0 0 14.544922 26.888672 A 1.0001 1.0001 0 0 0 14.914062 26.996094 A 1.0001 1.0001 0 0 0 15.015625 27 A 1.0001 1.0001 0 0 0 15.054688 26.998047 A 1.0001 1.0001 0 0 0 15.105469 26.994141 A 1.0001 1.0001 0 0 0 15.115234 26.994141 A 1.0001 1.0001 0 0 0 15.132812 26.990234 A 1.0001 1.0001 0 0 0 15.212891 26.976562 A 1.0001 1.0001 0 0 0 15.291016 26.957031 A 1.0001 1.0001 0 0 0 15.310547 26.951172 A 1.0001 1.0001 0 0 0 15.332031 26.943359 A 1.0001 1.0001 0 0 0 15.492188 26.871094 A 1.0001 1.0001 0 0 0 15.494141 26.869141 A 1.0001 1.0001 0 0 0 15.560547 26.828125 A 1.0001 1.0001 0 0 0 15.576172 26.816406 A 1.0001 1.0001 0 0 0 15.707031 26.707031 L 15.714844 26.701172 A 1.0001 1.0001 0 0 0 15.728516 26.685547 L 28.619141 13.794922 A 1.0001 1.0001 0 0 0 28.675781 12.251953 L 22.892578 5.5058594 A 1.0001 1.0001 0 0 0 21.990234 4.9707031 z M 9.3242188 7 L 13.054688 7 L 10.390625 10.730469 L 9.3242188 7 z M 16.945312 7 L 20.675781 7 L 19.609375 10.730469 L 16.945312 7 z M 15 7.7226562 L 18.054688 12 L 11.945312 12 L 15 7.7226562 z M 7.5488281 8.0605469 L 8.6738281 12 L 4.1738281 12 L 7.5488281 8.0605469 z M 22.451172 8.0605469 L 25.826172 12 L 21.326172 12 L 22.451172 8.0605469 z M 4.4140625 14 L 9.3125 14 L 12.375 21.960938 L 4.4140625 14 z M 11.457031 14 L 18.542969 14 L 15 23.212891 L 11.457031 14 z M 20.6875 14 L 25.585938 14 L 17.625 21.960938 L 20.6875 14 z"/></svg>