<?xml version="1.0" encoding="UTF-8" standalone="no"?>
<!DOCTYPE svg PUBLIC "-//W3C//DTD SVG 1.1//EN"
 "http://www.w3.org/Graphics/SVG/1.1/DTD/svg11.dtd">
<!-- Generated by graphviz version 2.47.3 (20210619.1520)
 -->
<!-- Title: dependencies Pages: 1 -->
<svg width="505pt" height="174pt"
 viewBox="0.00 0.00 505.00 173.80" xmlns="http://www.w3.org/2000/svg" xmlns:xlink="http://www.w3.org/1999/xlink">
<g id="graph0" class="graph" transform="scale(1 1) rotate(0) translate(4 169.8)">
<title>dependencies</title>
<polygon fill="white" stroke="transparent" points="-4,4 -4,-169.8 501,-169.8 501,4 -4,4"/>
<text text-anchor="middle" x="248.5" y="-8.2" font-family="sans-serif" font-size="14.00">dependencies</text>
<g id="clust1" class="cluster">
<title>cluster_BlogModule</title>
<polygon fill="none" stroke="black" stroke-dasharray="1,5" points="8,-32.8 8,-157.8 489,-157.8 489,-32.8 8,-32.8"/>
</g>
<g id="clust5" class="cluster">
<title>cluster_BlogModule_imports</title>
<polygon fill="none" stroke="black" points="333,-40.8 333,-92.8 481,-92.8 481,-40.8 333,-40.8"/>
</g>
<g id="clust2" class="cluster">
<title>cluster_BlogModule_declarations</title>
<polygon fill="none" stroke="black" points="16,-40.8 16,-92.8 325,-92.8 325,-40.8 16,-40.8"/>
</g>
<!-- BlogHomeComponent -->
<g id="node1" class="node">
<title>BlogHomeComponent</title>
<polygon fill="#ffffb3" stroke="black" points="317.27,-84.8 174.73,-84.8 174.73,-48.8 317.27,-48.8 317.27,-84.8"/>
<text text-anchor="middle" x="246" y="-62.6" font-family="Times,serif" font-size="14.00">BlogHomeComponent</text>
</g>
<!-- BlogModule -->
<g id="node3" class="node">
<title>BlogModule</title>
<polygon fill="#8dd3c7" stroke="black" points="289.28,-149.8 286.28,-153.8 265.28,-153.8 262.28,-149.8 202.72,-149.8 202.72,-113.8 289.28,-113.8 289.28,-149.8"/>
<text text-anchor="middle" x="246" y="-127.6" font-family="Times,serif" font-size="14.00">BlogModule</text>
</g>
<!-- BlogHomeComponent&#45;&gt;BlogModule -->
<g id="edge1" class="edge">
<title>BlogHomeComponent&#45;&gt;BlogModule</title>
<path fill="none" stroke="black" d="M246,-84.91C246,-84.91 246,-103.79 246,-103.79"/>
<polygon fill="black" stroke="black" points="242.5,-103.79 246,-113.79 249.5,-103.79 242.5,-103.79"/>
</g>
<!-- BlogPostComponent -->
<g id="node2" class="node">
<title>BlogPostComponent</title>
<polygon fill="#ffffb3" stroke="black" points="156.18,-84.8 23.82,-84.8 23.82,-48.8 156.18,-48.8 156.18,-84.8"/>
<text text-anchor="middle" x="90" y="-62.6" font-family="Times,serif" font-size="14.00">BlogPostComponent</text>
</g>
<!-- BlogPostComponent&#45;&gt;BlogModule -->
<g id="edge2" class="edge">
<title>BlogPostComponent&#45;&gt;BlogModule</title>
<path fill="none" stroke="black" d="M90,-84.91C90,-104.14 90,-131.8 90,-131.8 90,-131.8 192.55,-131.8 192.55,-131.8"/>
<polygon fill="black" stroke="black" points="192.55,-135.3 202.55,-131.8 192.55,-128.3 192.55,-135.3"/>
</g>
<!-- BlogRoutingModule -->
<g id="node4" class="node">
<title>BlogRoutingModule</title>
<polygon fill="#8dd3c7" stroke="black" points="472.89,-84.8 469.89,-88.8 448.89,-88.8 445.89,-84.8 341.11,-84.8 341.11,-48.8 472.89,-48.8 472.89,-84.8"/>
<text text-anchor="middle" x="407" y="-62.6" font-family="Times,serif" font-size="14.00">BlogRoutingModule</text>
</g>
<!-- BlogRoutingModule&#45;&gt;BlogModule -->
<g id="edge3" class="edge">
<title>BlogRoutingModule&#45;&gt;BlogModule</title>
<path fill="none" stroke="black" d="M407,-84.91C407,-104.14 407,-131.8 407,-131.8 407,-131.8 299.57,-131.8 299.57,-131.8"/>
<polygon fill="black" stroke="black" points="299.57,-128.3 289.57,-131.8 299.57,-135.3 299.57,-128.3"/>
</g>
</g>
</svg>
